<svg width="139" height="25" viewBox="0 0 139 25" fill="none" xmlns="http://www.w3.org/2000/svg">
<path d="M21.0477 7.69713L18.1945 18.0356L15.14 7.69713H11.0449L7.99032 18.002L5.13717 7.69713H0.538574L5.87564 24.4804H10.0043L13.0924 14.3097L16.1805 24.4804H20.3092L25.6463 7.69713H21.0477ZM35.3134 24.9503C40.2477 24.9503 44.2085 21.0901 44.2085 16.0887C44.2085 11.0873 40.2477 7.2272 35.3134 7.2272C30.3791 7.2272 26.4519 11.0873 26.4519 16.0887C26.4519 21.0901 30.3791 24.9503 35.3134 24.9503ZM35.3134 20.7209C32.7623 20.7209 30.7819 18.8076 30.7819 16.0887C30.7819 13.3699 32.7623 11.4566 35.3134 11.4566C37.898 11.4566 39.8784 13.3699 39.8784 16.0887C39.8784 18.8076 37.898 20.7209 35.3134 20.7209ZM51.5847 10.5838V7.69713H47.2547V24.4804H51.5847V16.458C51.5847 12.9335 54.4379 11.9265 56.6868 12.195V7.36147C54.5721 7.36147 52.4575 8.30133 51.5847 10.5838ZM74.6924 24.4804L67.7456 15.988L74.4924 7.69713H69.3218L63.5484 15.0817V0.983846H59.2183V24.4804H63.5484V16.8608L69.6575 24.4804H74.6924ZM85.884 0.513916C80.547 0.513916 77.9959 2.89713 77.9959 7.5293V7.69713H75.5791V11.8594H77.9959V24.4804H82.326V11.8594H85.112V7.69713H82.326V7.5293C82.326 5.24678 83.6351 4.30692 85.884 4.30692C86.3204 4.30692 86.7903 4.30692 87.2602 4.34049V24.4804H91.5903V1.21881C89.7442 0.849581 87.9987 0.513916 85.884 0.513916ZM103.527 24.9503C108.462 24.9503 112.422 21.0901 112.422 16.0887C112.422 11.0873 108.462 7.2272 103.527 7.2272C98.5931 7.2272 94.6658 11.0873 94.6658 16.0887C94.6658 21.0901 98.5931 24.9503 103.527 24.9503ZM103.527 20.7209C100.976 20.7209 98.9959 18.8076 98.9959 16.0887C98.9959 13.3699 100.976 11.4566 103.527 11.4566C106.112 11.4566 108.092 13.3699 108.092 16.0887C108.092 18.8076 106.112 20.7209 103.527 20.7209ZM133.712 7.69713L130.859 18.0356L127.804 7.69713H123.709L120.655 18.002L117.802 7.69713H113.203L118.54 24.4804H122.669L125.757 14.3097L128.845 24.4804H132.974L138.311 7.69713H133.712Z" fill="#4338CA"/>
</svg>
