<svg width="47" height="43" viewBox="0 0 47 43" fill="none" xmlns="http://www.w3.org/2000/svg">
<path d="M19.958 38.8952C20.2301 38.1947 20.3598 37.447 20.3396 36.6958C20.3811 34.6139 20.9375 32.5746 21.9592 30.7602C22.9783 28.9487 24.4317 27.419 26.1885 26.3084C26.8391 25.9595 27.412 25.4822 27.8728 24.9055C28.3335 24.3287 28.6725 23.6645 28.8691 22.953C29.0657 22.2415 29.116 21.4974 29.0168 20.7659C28.9176 20.0344 28.671 19.3307 28.292 18.6972C27.7857 17.8511 27.0571 17.1574 26.1885 16.6958C25.6906 16.3504 25.2123 15.9783 24.7564 15.5797L23.6137 14.4609C21.5199 12.2597 20.3458 9.34209 20.3312 6.30421C20.3528 5.55284 20.2238 4.80474 19.9516 4.10405C19.6794 3.40336 19.2697 2.76428 18.7466 2.22449C18.2258 1.68531 17.6017 1.25659 16.9116 0.96391C16.2214 0.67123 15.4794 0.520596 14.7298 0.520997C13.9806 0.522053 13.2392 0.673357 12.5495 0.965955C11.8598 1.25855 11.2358 1.68651 10.7144 2.22449C10.1922 2.76522 9.78309 3.40468 9.511 4.10543C9.23891 4.80618 9.10932 5.55417 9.1298 6.30561C9.14201 7.28105 9.41068 8.2361 9.90882 9.07484C10.4052 9.91217 11.114 10.6035 11.9634 11.079C15.4025 13.2553 17.7955 17.4161 17.7955 21.5084C17.787 24.5199 16.6353 27.4158 14.5732 29.6105L11.9718 31.921C11.1228 32.3951 10.4137 33.086 9.91581 33.9252C9.41651 34.763 9.14938 35.7196 9.13679 36.6958C9.1154 37.4472 9.24458 38.1952 9.51672 38.8959C9.78886 39.5965 10.1985 40.2356 10.7214 40.7755C11.2423 41.3146 11.8664 41.7432 12.5565 42.0359C13.2466 42.3286 13.9886 42.4793 14.7382 42.479C15.4876 42.4782 16.2293 42.327 16.9192 42.0344C17.6092 41.7417 18.2334 41.3137 18.755 40.7755C19.2769 40.2349 19.6859 39.5957 19.958 38.8952Z" fill="#8DA2FB"/>
<path d="M27.555 9.4161C26.9382 8.49023 26.6095 7.40072 26.6095 6.28743C26.6105 4.79614 27.2012 3.36576 28.2529 2.30841C29.1673 1.38846 30.3733 0.815407 31.6641 0.687555C32.9549 0.559703 34.2499 0.885026 35.327 1.60771C36.2496 2.22716 36.968 3.10612 37.3913 4.13358C37.8147 5.16222 37.9253 6.29291 37.7091 7.38407C37.4929 8.47523 36.9596 9.47836 36.1759 10.2678C35.3947 11.0552 34.3966 11.5918 33.3089 11.8093C32.2213 12.0267 31.0936 11.9152 30.0697 11.4888C29.0448 11.062 28.1696 10.3407 27.555 9.4161Z" fill="#8DA2FB"/>
<path d="M29.1004 32.0147C30.0221 31.3965 31.106 31.0665 32.2137 31.0665V31.0637C32.95 31.0645 33.679 31.2108 34.3587 31.494C35.0383 31.7772 35.6554 32.1918 36.1746 32.714C37.0919 33.6369 37.6626 34.8483 37.79 36.1433C37.9174 37.4384 37.5938 38.7377 36.8739 39.8217C36.2593 40.7475 35.3836 41.4699 34.3578 41.8972C33.3338 42.3236 32.2061 42.4351 31.1185 42.2177C30.0309 42.0002 29.0327 41.4636 28.2515 40.6762C27.4676 39.8866 26.9341 38.8833 26.7179 37.7918C26.5017 36.7004 26.6124 35.5694 27.0361 34.5406C27.4595 33.5132 28.1779 32.6342 29.1004 32.0147Z" fill="#8DA2FB"/>
<path d="M45.6081 18.3644C46.2233 19.2899 46.5519 20.3776 46.5522 21.4904C46.5512 22.9821 45.9605 24.4128 44.9088 25.4706C44.3896 25.9927 43.7724 26.4072 43.0928 26.6903C42.4131 26.9735 41.6843 27.1199 40.948 27.121C39.8391 27.121 38.7553 26.7909 37.8347 26.1727C36.9121 25.5533 36.1937 24.6743 35.7704 23.6469C35.3466 22.6181 35.236 21.4871 35.4522 20.3956C35.6684 19.3042 36.2018 18.3008 36.9857 17.5112C37.7671 16.7236 38.7655 16.1868 39.8534 15.9693C40.9413 15.7518 42.0693 15.8636 43.0934 16.2902C44.1185 16.7174 44.9937 17.4393 45.6081 18.3644Z" fill="#8DA2FB"/>
<path d="M2.88929 16.8105C3.81097 16.1923 4.89349 15.8622 6.00258 15.8622C6.73873 15.8638 7.46734 16.0105 8.14675 16.2939C8.82615 16.5773 9.443 16.9919 9.96202 17.514C10.879 18.4366 11.4493 19.6474 11.5767 20.9419C11.7041 22.2364 11.3808 23.5352 10.6613 24.6189C10.0469 25.5439 9.17168 26.2658 8.14663 26.693C7.12235 27.1173 5.99512 27.2278 4.90796 27.0104C3.8208 26.793 2.82271 26.2576 2.04034 25.472C1.25671 24.6826 0.723404 23.6794 0.507212 22.5883C0.29102 21.4971 0.401548 20.3664 0.824956 19.3378C1.24816 18.3098 1.96652 17.4304 2.88929 16.8105Z" fill="#8DA2FB"/>
</svg>
